# xmcd
#
# Track frame offsets: 
#        150
#        4952
#        23880
#        40400
#        53847
#        76240
#        92905
#        115500
#        130727
#        147367
#        167602
#        183535
#        199810
#
# Disc length: 2903 seconds
#
# Revision: 6
# Processed by: cddbd v1.5.2PL0 Copyright (c) Steve Scherf et al.
# Submitted via: ExactAudioCopyFreeDBPlugin 1.0
#
DISCID=aa0b550d
DTITLE=Nature - For All Seasons
DYEAR=2000
DGENRE=Rap
TTITLE0=Intro
TTITLE1=Man's World
TTITLE2=We Ain't Friends
TTITLE3=Shit Like This
TTITLE4=The Ultimate High (feat. Nas)
TTITLE5=Young Love
TTITLE6=Go Ahead
TTITLE7=Natures Shine
TTITLE8=Smoke
TTITLE9=Remember
TTITLE10=Talking That Shit
TTITLE11=I Don't Give A Fuck
TTITLE12=Don't Stop
EXTD=www.RapMusicGuide.com\n
EXTT0=aa0b550d
EXTT1=
EXTT2=
EXTT3=
EXTT4=
EXTT5=
EXTT6=
EXTT7=
EXTT8=
EXTT9=
EXTT10=
EXTT11=
EXTT12=
PLAYORDER=
